<svg xmlns="http://www.w3.org/2000/svg" viewBox="-60 -60 622 555">
  <rect x="-60" y="-60" width="622" height="555" fill="#000"/>
  <g>
    <!-- Light claws -->
    <path fill="#5bc4f6" d="M 153.1,222.9 L 242.8,378.2 L 219.3,434.8 L 186.6,378.2 L 153.7,434.8 L 130.2,378.2 L 158.3,329.6 L 125.1,271.8 Z"/>
    <path fill="#5bc4f6" d="M 295.1,130.1 L 115.8,130.1 L 78.5,81.5 L 143.9,81.5 L 111.3,24.7 L 172.1,32.6 L 200.1,81.3 L 266.8,81.4 Z"/>
    <path fill="#5bc4f6" d="M 304.5,299.5 L 394.1,144.2 L 454.9,136.2 L 422.2,192.8 L 487.7,193.0 L 450.4,241.7 L 394.3,241.6 L 360.8,299.3 Z"/>
    <!-- Dark claws -->
    <path fill="#4a6fb5" d="M 197.3,135.5 L 107.7,290.8 L 46.9,298.8 L 79.6,242.2 L 14.1,242.0 L 51.4,193.3 L 107.5,193.4 L 141.0,135.7 Z"/>
    <path fill="#4a6fb5" d="M 348.7,212.1 L 259.0,56.8 L 282.5,0.2 L 315.2,56.8 L 348.1,0.2 L 371.6,56.8 L 343.5,105.4 L 376.7,163.2 Z"/>
    <path fill="#4a6fb5" d="M 206.7,304.9 L 386.0,304.9 L 423.3,353.5 L 357.9,353.5 L 390.5,410.3 L 329.7,402.4 L 301.7,353.7 L 235.0,353.6 Z"/>
    <!-- Eyes (symmetric around x=251, diamond parallelograms) -->
    <path fill="#5bc4f6" d="M 177.8,203.3 L 212.4,210.0 L 237.8,234.5 L 203.2,227.8 Z"/>
    <path fill="#5bc4f6" d="M 264.2,234.5 L 289.6,210.0 L 324.2,203.3 L 298.8,227.8 Z"/>
  </g>
</svg>
